<svg xmlns="http://www.w3.org/2000/svg" xmlns:xlink="http://www.w3.org/1999/xlink" width="150" height="32"><defs><path id="a" d="M0 31.941h149.993V0H0z"/></defs><g fill="none" fill-rule="evenodd"><path fill="#FFF" d="M43.47 17.595c0 3.504 1.625 6.487 5.484 6.487 3.021 0 5.014-1.904 5.027-4.29h1.015v.037c0 2.806-2.373 5.192-6.042 5.192-4.583 0-6.525-3.338-6.525-7.54v-2.932c0-4.19 2.031-7.58 6.474-7.58 3.847 0 5.98 2.73 5.98 5.27v.037h-1.016c-.026-2.056-1.803-4.354-4.964-4.354-3.745 0-5.433 2.97-5.433 6.512v3.161zm16.145-.178v1.65c0 3.276 1.816 5.015 4.342 5.015 2.488 0 4.329-1.701 4.329-5.014v-1.65c0-3.276-1.841-5.053-4.342-5.053-2.5 0-4.329 1.752-4.329 5.052m9.699-.101v1.866c0 3.72-2.26 5.84-5.37 5.84-3.11 0-5.344-2.12-5.344-5.84v-1.866c0-3.745 2.209-5.878 5.344-5.878 3.085 0 5.37 2.184 5.37 5.878"/><mask id="b" fill="#fff"><use xlink:href="#a"/></mask><path fill="#FFF" d="M73.64 25.021h1.017V11.883H73.64V25.02zm.509-17.505c.508 0 .914.406.914.914s-.406.901-.914.901-.901-.393-.901-.901.393-.914.9-.914zm5.445 4.367h1.015v2.437h.051c.432-1.244 1.777-2.653 4.227-2.653 2.64 0 4.57 1.688 4.57 4.76v8.594H88.43v-8.467c0-2.285-1.346-3.935-3.694-3.935-2.755 0-4.126 2.158-4.126 4.392v8.01h-1.015V11.883zm15.168 8.175c.165 1.714 1.6 3.237 4.455 3.237 2.514 0 4.164-1.244 4.164-3.237 0-1.561-.965-2.412-3.008-2.945l-2.996-.8c-2.057-.546-3.999-1.84-3.999-4.481 0-3.174 2.818-4.913 5.877-4.913 2.907 0 5.802 1.536 5.865 4.824h-1.904c-.152-1.701-1.434-3.097-3.999-3.097-2.272 0-3.91 1.104-3.91 3.059 0 1.358.826 2.298 2.565 2.755l2.932.8c2.73.736 4.52 1.942 4.52 4.671 0 3.351-2.831 5.09-6.348 5.09-4.494 0-6.068-2.78-6.131-4.963h1.917zm15.06-11.793h1.866v3.338h2.717v1.587h-2.717v8.188c0 1.638.533 2.044 2.222 2.044.228 0 .419 0 .609-.026v1.537a6.49 6.49 0 01-1.08.088c-3.033 0-3.617-1.193-3.617-3.757v-13zm16.513 12.11v-1.637h-3.554c-1.942 0-2.768.926-2.768 2.221 0 1.65 1.359 2.45 2.857 2.45 1.98 0 3.465-1.244 3.465-3.034m-3.91 4.646c-2.576 0-4.341-1.587-4.341-4.024 0-2.298 1.6-3.77 4.633-3.783h3.618V15.78c0-1.866-1.091-2.87-2.983-2.87-1.828 0-2.83.902-2.983 2.311h-1.765c.153-2.31 1.74-3.922 4.824-3.922 2.768 0 4.774 1.536 4.774 4.265v9.241h-1.816V23.08h-.05c-.635 1.066-1.88 1.942-3.91 1.942m9.831-16.757h1.866v3.338h2.716v1.587h-2.716v8.188c0 1.638.533 2.044 2.221 2.044.229 0 .42 0 .61-.026v1.537a6.49 6.49 0 01-1.08.088c-3.033 0-3.617-1.193-3.617-3.757v-13zm12.772 3.034c3.135 0 4.633 1.84 4.633 3.922h-1.764c-.064-1.04-.736-2.323-2.945-2.323-1.663 0-2.894.724-2.894 2.146 0 1.536 1.688 1.904 3.3 2.221 2.475.457 4.634 1.079 4.634 3.694 0 2.628-2.146 4.062-5.167 4.062-2.907 0-4.862-1.46-4.862-3.745h1.828c.178 1.22 1.244 2.146 3.186 2.146 2.12 0 3.161-.99 3.161-2.247 0-1.574-1.447-1.879-3.402-2.285-2.5-.546-4.52-1.27-4.52-3.643 0-2.73 2.286-3.948 4.812-3.948" mask="url(#b)"/><path fill="#FFB347" d="M7.46 23.495l-3.28 3.28C1.484 23.841 0 20.005 0 15.965 0 11.678 1.65 7.666 4.648 4.67a16.039 16.039 0 016.48-3.937l1.014 4.551a11.382 11.382 0 00-4.225 2.67 11.28 11.28 0 00-3.312 7.768 11.292 11.292 0 002.856 7.774" mask="url(#b)"/><path fill="#FF9332" d="M15.936 15.961L12.467.373a15.941 15.941 0 017.878.262 16.208 16.208 0 016.929 4.095 15.868 15.868 0 014.104 7.1c.663 2.48.718 5.111.16 7.615L15.936 15.96z" mask="url(#b)"/><path fill="#EA5237" d="M23.917 29.774c-3.713 2.144-8.012 2.72-12.106 1.624a16.043 16.043 0 01-6.675-3.668l3.28-3.28a11.307 11.307 0 007.52 2.848 11.263 11.263 0 008.008-3.319 11.384 11.384 0 002.666-4.218l4.568 1.02c-1.196 3.787-3.772 6.978-7.26 8.993" mask="url(#b)"/></g></svg>